<?xml version="1.0" standalone="no"?>
<!DOCTYPE svg PUBLIC "-//W3C//DTD SVG 20010904//EN"
 "http://www.w3.org/TR/2001/REC-SVG-20010904/DTD/svg10.dtd">
<svg version="1.0" xmlns="http://www.w3.org/2000/svg"
 width="865pt" height="323pt" viewBox="0 0 865 323"
 preserveAspectRatio="xMidYMid meet">

<g transform="translate(0,323) scale(0.1,-0.1)"
fill="#FFFFFF" stroke="none">
<path d="M550 2716 c-179 -40 -319 -189 -349 -373 -8 -48 -11 -287 -9 -813 l3
-745 24 -60 c61 -154 187 -264 336 -295 34 -7 549 -9 1570 -8 l1520 3 54 22
c128 53 223 146 273 271 l23 57 3 769 c2 529 -1 786 -8 823 -25 120 -120 247
-227 306 -110 59 -40 57 -1668 56 -1144 -1 -1503 -4 -1545 -13z m1810 -120 l0
-44 388 -5 c343 -4 397 -7 477 -25 237 -53 427 -162 599 -343 l86 -90 0 -628
c0 -544 -2 -635 -16 -682 -35 -121 -124 -213 -241 -249 -63 -19 -91 -20 -723
-20 l-657 0 -85 85 -85 85 -87 -86 -86 -85 -682 3 -683 3 -67 32 c-117 55
-189 152 -208 280 -5 38 -10 327 -10 659 l0 591 58 69 c114 135 283 256 447
319 193 74 304 87 690 83 l280 -3 3 -252 2 -253 -313 0 c-280 0 -322 -2 -391
-20 -213 -54 -379 -209 -450 -420 -25 -73 -29 -100 -29 -195 0 -91 5 -124 27
-191 126 -390 581 -562 933 -352 87 51 184 155 232 246 72 139 71 128 71 863
0 361 3 659 7 662 3 4 120 7 260 7 l253 0 0 -44z"/>
<path d="M2362 1658 l3 -383 27 -73 c37 -101 82 -172 155 -245 121 -120 249
-176 418 -184 193 -9 335 47 475 187 96 96 137 168 170 296 72 279 -71 585
-332 713 -132 65 -174 71 -571 71 l-348 0 3 -382z"/>
<path d="M4257 1986 c-58 -16 -112 -64 -140 -126 -38 -86 -19 -227 41 -293 46
-52 166 -81 236 -57 70 23 135 103 136 168 0 39 -36 28 -51 -15 -18 -57 -38
-82 -80 -104 -150 -76 -298 82 -245 262 24 86 84 131 171 133 63 0 116 -29
139 -79 13 -26 23 -35 42 -35 24 0 24 0 9 37 -20 47 -41 71 -85 93 -50 26
-117 32 -173 16z"/>
<path d="M4730 1981 c-100 -35 -158 -139 -147 -261 14 -161 146 -252 302 -209
153 42 212 244 114 392 -54 82 -166 114 -269 78z m135 -32 c22 -6 56 -28 76
-48 93 -93 70 -283 -41 -338 -104 -53 -225 -5 -261 104 -15 47 -7 149 15 196
37 75 122 110 211 86z"/>
<path d="M5120 1750 l0 -250 103 0 c133 0 193 17 240 69 44 49 62 119 54 213
-14 161 -94 218 -307 218 l-90 0 0 -250z m270 180 c57 -29 79 -80 80 -180 0
-59 -5 -86 -22 -120 -33 -65 -72 -83 -185 -88 l-93 -4 0 212 0 213 89 -6 c62
-4 102 -12 131 -27z"/>
<path d="M5600 1750 l0 -250 170 0 c163 0 170 1 170 20 0 18 -8 20 -147 22
l-148 3 0 95 0 95 138 3 c129 2 137 4 137 22 0 19 -7 20 -140 20 l-141 0 3 88
3 87 148 3 c139 2 147 4 147 22 0 19 -7 20 -170 20 l-170 0 0 -250z"/>
<path d="M6010 1750 c0 -243 1 -250 20 -250 11 0 20 6 21 13 0 6 1 55 2 107
l2 95 107 3 c154 4 163 -6 177 -210 1 -5 12 -8 26 -8 24 0 25 3 21 33 -3 17
-8 59 -12 91 -5 47 -12 65 -35 88 l-28 29 30 27 c51 46 56 137 9 187 -31 33
-91 45 -224 45 l-116 0 0 -250z m287 190 c50 -32 53 -107 7 -151 -24 -22 -33
-24 -137 -24 l-112 0 -3 84 c-2 46 0 91 3 99 7 20 209 13 242 -8z"/>
<path d="M6575 1991 c-46 -12 -82 -39 -99 -76 -19 -39 -20 -65 -4 -99 17 -38
45 -52 159 -81 137 -35 171 -66 144 -132 -18 -42 -86 -68 -157 -60 -66 8 -99
32 -118 85 -18 53 -50 59 -50 11 0 -73 64 -126 165 -136 123 -13 215 43 215
130 0 78 -45 112 -188 142 -102 22 -132 43 -132 91 0 114 211 121 251 9 16
-43 49 -49 49 -9 0 38 -28 79 -69 102 -42 24 -122 35 -166 23z"/>
<path d="M7100 1750 l0 -250 143 0 c158 0 204 13 246 66 20 25 22 38 19 88 -4
54 -8 63 -42 92 -27 24 -33 33 -22 37 8 3 22 20 32 38 22 43 13 104 -19 137
-32 32 -85 41 -234 42 l-123 0 0 -250z m261 150 c22 -12 27 -68 7 -88 -7 -7
-42 -12 -85 -12 l-73 0 0 55 0 55 66 0 c36 0 74 -5 85 -10z m17 -196 c16 -11
22 -25 22 -54 0 -50 -18 -60 -113 -63 l-72 -2 -3 68 -3 67 73 0 c50 0 81 -5
96 -16z"/>
<path d="M7632 1758 c-51 -134 -92 -246 -92 -250 0 -5 24 -8 53 -8 l53 0 18
55 17 55 94 0 93 0 17 -51 c19 -57 25 -61 88 -57 l45 3 -92 245 -92 245 -55 3
-56 3 -91 -243z m178 21 c16 -46 30 -85 30 -86 0 -2 -27 -3 -60 -3 -41 0 -60
4 -60 13 0 14 53 167 57 163 1 -1 16 -40 33 -87z"/>
<path d="M7960 1996 c0 -3 41 -72 90 -154 l90 -150 0 -96 0 -96 55 0 55 0 0
96 0 97 89 148 c49 81 87 150 83 153 -3 3 -29 6 -58 6 l-52 0 -52 -90 c-28
-49 -55 -92 -60 -95 -5 -3 -34 37 -66 90 l-56 95 -59 0 c-33 0 -59 -2 -59 -4z"/>
<path d="M6900 1555 l0 -55 55 0 55 0 0 55 0 55 -55 0 -55 0 0 -55z"/>
<path d="M4095 1320 c9 -14 4335 -14 4335 0 0 7 -730 10 -2171 10 -1444 0
-2168 -3 -2164 -10z"/>
<path d="M5850 968 l0 -178 120 0 c113 0 120 1 120 20 0 19 -7 20 -100 20
l-100 0 0 60 0 59 92 3 c79 3 93 6 96 21 3 15 -7 17 -93 17 l-96 0 3 56 3 56
95 2 c80 1 95 4 98 18 3 15 -10 17 -117 20 l-121 3 0 -177z"/>
<path d="M6163 1143 c-10 -4 -13 -48 -13 -179 0 -167 1 -174 20 -174 18 0 20
8 22 141 l3 142 92 -142 c79 -120 96 -141 118 -141 l25 0 0 175 c0 175 0 175
-22 175 -23 0 -23 -1 -21 -135 1 -74 -1 -135 -5 -135 -4 0 -45 60 -92 134 -81
128 -99 148 -127 139z"/>
<path d="M6510 969 c0 -172 1 -179 20 -179 19 0 20 7 20 143 l0 142 93 -142
c81 -127 95 -143 120 -143 l27 0 0 173 c0 96 -3 176 -6 179 -3 3 -14 4 -24 1
-18 -5 -20 -17 -22 -140 l-3 -135 -88 135 c-66 102 -93 136 -112 139 l-25 5 0
-178z"/>
<path d="M6970 1143 c-9 -2 -35 -55 -64 -131 -27 -70 -57 -148 -67 -174 l-19
-48 26 0 c28 0 26 -4 94 185 51 138 39 145 111 -62 41 -118 44 -123 71 -123
15 0 28 1 28 3 0 1 -30 80 -68 176 -66 171 -73 183 -112 174z"/>
<path d="M5380 1136 c0 -4 103 -299 115 -329 5 -12 16 -17 34 -15 28 3 21 -11
111 241 l39 108 -27 -3 c-24 -3 -29 -12 -72 -145 -25 -78 -47 -143 -50 -143
-3 0 -27 65 -53 145 -45 134 -50 145 -73 145 -13 0 -24 -2 -24 -4z"/>
<path d="M5720 965 l0 -175 25 0 25 0 0 175 0 175 -25 0 -25 0 0 -175z"/>
</g>
</svg>
